<svg xmlns="http://www.w3.org/2000/svg" version="1.1" xmlns:xlink="http://www.w3.org/1999/xlink" xmlns:svgjs="http://svgjs.com/svgjs" width="75.4" height="74.3"><svg xmlns="http://www.w3.org/2000/svg" viewBox="11.7 14.3 75.4 74.3">
  <path d="M82.1 63.6c-.5 0-1 .1-1.5.2l-9.6-14.3c.8-1.1 1.3-2.5 1.3-3.9 0-1.5-.5-2.9-1.3-4l9.4-17.1c.4.1.9.2 1.3.2 2.9 0 5.2-2.3 5.2-5.2s-2.3-5.2-5.2-5.2-5.2 2.3-5.2 5.2c0 1.7.8 3.2 2.1 4.2l-9.1 16.5c-1.1-.8-2.5-1.3-4-1.3-2.1 0-4 1-5.2 2.5 0 0-.1-.1-.1-.1l-22.7-8.8c.4-.9.7-1.9.7-3 0-3.7-3-6.7-6.7-6.7s-6.7 3-6.7 6.7 3 6.7 6.7 6.7c1.9 0 3.7-.8 4.9-2.1l23 8.9c-.3.8-.5 1.6-.5 2.5 0 .8.1 1.6.4 2.3l-23.9 4.8c-1-2.5-3.5-4.3-6.4-4.3-3.8 0-6.9 3.1-6.9 6.9 0 2.3 1.1 4.4 2.9 5.6l-7 14c-.4-.1-.7-.1-1.1-.1-2.9 0-5.2 2.3-5.2 5.2s2.3 5.2 5.2 5.2 5.2-2.3 5.2-5.2c0-1.8-.9-3.4-2.3-4.3l6.9-13.8c.7.2 1.4.4 2.2.4 3.8 0 6.9-3.1 6.9-6.9 0-.2 0-.4 0-.6l24.4-4.9c1.2 1.6 3.2 2.6 5.3 2.6 1.5 0 2.9-.5 4-1.4l9.3 13.7c-1.2 1-2 2.4-2 4.1 0 .8.2 1.5.5 2.2l-14.2 7.2c-1.2-1.8-3.3-3-5.6-3-3.7 0-6.7 3-6.7 6.7s3 6.7 6.7 6.7 6.7-3 6.7-6.7c0-.7-.1-1.3-.3-1.9l14.5-7.4c.9.9 2.2 1.4 3.5 1.4 2.9 0 5.2-2.3 5.2-5.2S85 63.6 82.1 63.6zM81.8 16.3c1.8 0 3.2 1.4 3.2 3.2s-1.4 3.2-3.2 3.2-3.2-1.4-3.2-3.2S80 16.3 81.8 16.3zM31.5 34.3c-2.6 0-4.7-2.1-4.7-4.7 0-2.6 2.1-4.7 4.7-4.7 2.6 0 4.7 2.1 4.7 4.7C36.3 32.2 34.1 34.3 31.5 34.3zM16.9 83.1c-1.8 0-3.2-1.4-3.2-3.2s1.4-3.2 3.2-3.2 3.2 1.4 3.2 3.2S18.7 83.1 16.9 83.1zM29 60.1c-2.7 0-4.9-2.2-4.9-4.9 0-2.7 2.2-4.9 4.9-4.9 2.7 0 4.9 2.2 4.9 4.9C33.9 57.9 31.7 60.1 29 60.1zM60.9 45.6c0-2.6 2.1-4.7 4.7-4.7 2.6 0 4.7 2.1 4.7 4.7s-2.1 4.7-4.7 4.7C63 50.4 60.9 48.2 60.9 45.6zM57.6 86.7c-2.6 0-4.7-2.1-4.7-4.7 0-2.6 2.1-4.7 4.7-4.7s4.7 2.1 4.7 4.7C62.4 84.6 60.2 86.7 57.6 86.7zM82.1 72c-1.8 0-3.2-1.4-3.2-3.2s1.4-3.2 3.2-3.2 3.2 1.4 3.2 3.2S83.9 72 82.1 72z" fill="currentColor"></path>
</svg><style>@media (prefers-color-scheme: light) { :root { filter: none; } }
@media (prefers-color-scheme: dark) { :root { filter: invert(100%); } }
</style></svg>